<svg xmlns="http://www.w3.org/2000/svg" xmlns:xlink="http://www.w3.org/1999/xlink" width="750" viewBox="0 0 750 375" height="375" version="1.0"><defs><g id="a"><path d="M 9.457031 0 L 41.195312 0 C 67.640625 0 89.28125 -21.480469 89.28125 -48.085938 C 89.28125 -74.695312 67.640625 -96.171875 41.195312 -96.171875 L 9.457031 -96.171875 Z M 30.613281 -18.753906 L 30.613281 -77.417969 L 41.035156 -77.417969 C 56.261719 -77.417969 68.121094 -64.757812 68.121094 -48.085938 C 68.121094 -31.417969 56.261719 -18.753906 41.035156 -18.753906 Z M 30.613281 -18.753906"/></g><g id="b"><path d="M 74.695312 -32.21875 C 74.695312 -52.253906 60.910156 -65.558594 40.234375 -65.558594 C 19.554688 -65.558594 4.96875 -52.09375 4.96875 -32.058594 C 4.96875 -12.023438 19.394531 1.28125 40.875 1.28125 C 58.664062 1.28125 70.527344 -8.175781 73.734375 -22.121094 L 54.015625 -22.121094 C 52.253906 -16.992188 47.605469 -13.945312 40.554688 -13.945312 C 31.257812 -13.945312 26.449219 -19.554688 25.644531 -28.691406 L 74.695312 -28.691406 Z M 40.554688 -49.851562 C 47.445312 -49.851562 51.453125 -46.644531 53.535156 -41.035156 L 26.929688 -41.035156 C 29.011719 -46.484375 33.339844 -49.851562 40.554688 -49.851562 Z M 40.554688 -49.851562"/></g><g id="c"><path d="M 30.132812 1.28125 C 44.558594 1.28125 53.375 -7.535156 53.375 -19.554688 C 53.375 -32.378906 42.796875 -37.507812 33.660156 -41.035156 C 29.011719 -42.957031 26.769531 -43.917969 26.769531 -46.324219 C 26.769531 -48.40625 28.371094 -50.011719 31.898438 -50.011719 C 36.066406 -50.011719 39.910156 -47.765625 41.835938 -45.363281 L 52.09375 -56.902344 C 47.285156 -61.710938 39.429688 -65.398438 30.453125 -65.398438 C 15.867188 -65.398438 6.570312 -55.78125 6.570312 -44.878906 C 6.570312 -32.058594 19.394531 -27.730469 26.769531 -25.003906 C 32.539062 -22.761719 34.460938 -21.15625 34.460938 -18.914062 C 34.460938 -16.347656 32.21875 -14.90625 28.851562 -14.90625 C 25.484375 -14.90625 20.996094 -16.1875 18.113281 -21.640625 L 3.046875 -14.105469 C 6.890625 -4.167969 18.753906 1.28125 30.132812 1.28125 Z M 30.132812 1.28125"/></g><g id="d"><path d="M 47.925781 -65.398438 C 40.875 -65.398438 34.460938 -62.191406 29.972656 -56.902344 L 29.972656 -109.796875 L 9.457031 -109.796875 L 9.457031 0 L 29.972656 0 L 29.972656 -36.226562 C 29.972656 -41.835938 34.621094 -47.285156 40.875 -47.285156 C 46.644531 -47.285156 50.652344 -42.796875 50.652344 -37.1875 L 50.652344 0 L 71.167969 0 L 71.167969 -40.554688 C 71.167969 -54.660156 60.910156 -65.398438 47.925781 -65.398438 Z M 47.925781 -65.398438"/></g><g id="e"><path d="M 20.035156 -74.855469 C 26.128906 -74.855469 31.257812 -79.984375 31.257812 -86.074219 C 31.257812 -92.328125 26.128906 -97.296875 20.035156 -97.296875 C 13.945312 -97.296875 8.816406 -92.328125 8.816406 -86.074219 C 8.816406 -79.984375 13.945312 -74.855469 20.035156 -74.855469 Z M 9.777344 0 L 30.132812 0 L 30.132812 -64.117188 L 9.777344 -64.117188 Z M 9.777344 0"/></g><g id="f"><path d="M 55.300781 1.28125 C 74.375 1.28125 90.882812 -9.457031 99.058594 -25.164062 L 80.785156 -34.621094 C 76.136719 -25.484375 66.679688 -19.394531 55.300781 -19.394531 C 39.109375 -19.394531 26.769531 -31.898438 26.769531 -48.085938 C 26.769531 -64.277344 39.109375 -76.777344 55.300781 -76.777344 C 66.679688 -76.777344 76.136719 -70.6875 80.785156 -61.550781 L 99.058594 -71.007812 C 90.882812 -86.714844 74.375 -97.457031 55.300781 -97.457031 C 28.050781 -97.457031 5.929688 -75.335938 5.929688 -48.085938 C 5.929688 -20.835938 28.050781 1.28125 55.300781 1.28125 Z M 55.300781 1.28125"/></g><g id="g"><path d="M 40.714844 1.28125 C 62.191406 1.28125 76.296875 -12.824219 76.296875 -32.058594 C 76.296875 -51.292969 62.191406 -65.398438 40.714844 -65.398438 C 19.234375 -65.398438 4.96875 -51.292969 4.96875 -32.058594 C 4.96875 -12.824219 19.234375 1.28125 40.714844 1.28125 Z M 40.714844 -16.832031 C 31.898438 -16.992188 25.484375 -23.402344 25.484375 -32.058594 C 25.484375 -40.714844 31.898438 -47.125 40.714844 -47.285156 C 49.367188 -47.125 55.941406 -40.714844 55.941406 -32.058594 C 55.941406 -23.402344 49.367188 -16.992188 40.714844 -16.832031 Z M 40.714844 -16.832031"/></g><g id="h"><path d="M 54.980469 -109.796875 L 54.980469 -58.503906 C 50.171875 -62.832031 44.078125 -65.398438 36.707031 -65.398438 C 18.914062 -65.398438 4.96875 -50.652344 4.96875 -32.058594 C 4.96875 -13.464844 18.914062 1.28125 36.707031 1.28125 C 44.078125 1.28125 50.171875 -1.28125 54.980469 -5.609375 L 54.980469 0.160156 L 75.335938 0 L 75.335938 -109.796875 Z M 40.714844 -16.832031 C 32.21875 -16.832031 25.484375 -23.5625 25.484375 -32.058594 C 25.484375 -40.554688 32.21875 -47.285156 40.714844 -47.285156 C 49.046875 -47.285156 55.941406 -40.554688 55.941406 -32.058594 C 55.941406 -23.5625 49.046875 -16.832031 40.714844 -16.832031 Z M 40.714844 -16.832031"/></g></defs><path fill="#545454" d="M 705.5 187.5 C 695.316406 187.5 687.0625 195.753906 687.0625 205.933594 C 687.0625 216.117188 695.316406 224.371094 705.5 224.371094 C 715.679688 224.371094 723.933594 216.117188 723.933594 205.933594 C 723.933594 195.753906 715.679688 187.5 705.5 187.5 Z M 705.5 187.5"/><g><use x="25.938" y="224.371" xmlns:xlink="http://www.w3.org/1999/xlink" xlink:href="#a" xlink:type="simple" xlink:actuate="onLoad" xlink:show="embed"/></g><g><use x="114.731" y="224.371" xmlns:xlink="http://www.w3.org/1999/xlink" xlink:href="#b" xlink:type="simple" xlink:actuate="onLoad" xlink:show="embed"/></g><g><use x="187.816" y="224.371" xmlns:xlink="http://www.w3.org/1999/xlink" xlink:href="#c" xlink:type="simple" xlink:actuate="onLoad" xlink:show="embed"/></g><g><use x="237.821" y="224.371" xmlns:xlink="http://www.w3.org/1999/xlink" xlink:href="#d" xlink:type="simple" xlink:actuate="onLoad" xlink:show="embed"/></g><g><use x="310.586" y="224.371" xmlns:xlink="http://www.w3.org/1999/xlink" xlink:href="#e" xlink:type="simple" xlink:actuate="onLoad" xlink:show="embed"/></g><g fill="#545454"><use x="344.226" y="224.371" xmlns:xlink="http://www.w3.org/1999/xlink" xlink:href="#f" xlink:type="simple" xlink:actuate="onLoad" xlink:show="embed"/></g><g fill="#545454"><use x="441.032" y="224.371" xmlns:xlink="http://www.w3.org/1999/xlink" xlink:href="#g" xlink:type="simple" xlink:actuate="onLoad" xlink:show="embed"/></g><g fill="#545454"><use x="516.041" y="224.371" xmlns:xlink="http://www.w3.org/1999/xlink" xlink:href="#h" xlink:type="simple" xlink:actuate="onLoad" xlink:show="embed"/></g><g fill="#545454"><use x="594.415" y="224.371" xmlns:xlink="http://www.w3.org/1999/xlink" xlink:href="#b" xlink:type="simple" xlink:actuate="onLoad" xlink:show="embed"/></g></svg>